<svg width="0" height="0" class="hidden">
  <symbol  xmlns="http://www.w3.org/2000/svg" viewBox="0 0 19 19" id="search">
    <path fill-rule="evenodd" clip-rule="evenodd" d="M17.9005 16.4865L14.3205 12.9065L14.3195 12.9055C16.9095 9.569 16.4594 4.79387 13.2916 2.00007C10.1238 -0.793727 5.32983 -0.643497 2.34317 2.34317C-0.643497 5.32983 -0.793727 10.1238 2.00007 13.2916C4.79387 16.4594 9.569 16.9095 12.9055 14.3195L16.4855 17.8995C16.7364 18.1596 17.1081 18.2642 17.4578 18.1729C17.8075 18.0816 18.0808 17.8088 18.1725 17.4592C18.2643 17.1097 18.1603 16.7378 17.9005 16.4865ZM13.1967 11.0005C12.1249 12.8569 10.1441 14.0005 8.00052 14.0005C4.68681 14.0005 2.00052 11.3142 2.00052 8.00052C2.00052 4.68681 4.68681 2.00052 8.00052 2.00052C10.1441 2.00052 12.1249 3.14411 13.1967 5.00052C14.2685 6.85693 14.2685 9.14411 13.1967 11.0005Z" ></path>
  </symbol>
  <symbol  xmlns="http://www.w3.org/2000/svg" viewBox="0 0 27 20" id="video">
    <path  fill-rule="evenodd" clip-rule="evenodd" d="M22.2082 2.86766L18.4091 5.68182V2.50266C18.4091 1.11814 17.3104 0 15.955 0H2.4541C1.09644 0 0 1.12048 0 2.50266V17.4973C0 18.8819 1.09874 20 2.4541 20H15.955C17.3126 20 18.4091 18.8795 18.4091 17.4973V14.3182L22.2082 17.1323C22.48 17.3336 22.9801 17.5 23.32 17.5H25.7691C26.456 17.5 27 16.939 27 16.2469V3.75309C27 3.06064 26.4489 2.5 25.7691 2.5H23.32C22.9732 2.5 22.4823 2.66461 22.2082 2.86766ZM2.45455 17.5V2.5H15.9545V17.5H2.45455ZM4.90909 13.75C4.90909 13.0596 5.45956 12.5 6.13996 12.5H12.2691C12.9489 12.5 13.5 13.0548 13.5 13.75C13.5 14.4404 12.9495 15 12.2691 15H6.13996C5.46017 15 4.90909 14.4452 4.90909 13.75ZM23.5108 14.9998L18.424 11.238L18.4243 8.76179L23.5073 4.9966L24.5455 4.99818V14.9988L23.5108 14.9998Z"></path>
  </symbol>
  <symbol  xmlns="http://www.w3.org/2000/svg" viewBox="0 0 28 28" id="Left">
    <path opacity="0.24" d="M14 28C21.732 28 28 21.732 28 14C28 6.26801 21.732 0 14 0C6.26801 0 0 6.26801 0 14C0 21.732 6.26801 28 14 28Z" fill="black"></path>
    <path fill-rule="evenodd" clip-rule="evenodd" d="M16.0017 8.66611L16.5363 9.20513C16.7121 9.39201 16.8 9.61012 16.8 9.8592C16.8 10.1133 16.7121 10.329 16.5363 10.5063L13.0719 14L16.5363 17.4937C16.712 17.671 16.8 17.8867 16.8 18.1407C16.8 18.3899 16.712 18.608 16.5363 18.7949L16.0016 19.3268C15.8211 19.5089 15.6048 19.6 15.3529 19.6C15.0963 19.6 14.8825 19.5089 14.7114 19.3268L10.0709 14.647C9.89034 14.4744 9.80005 14.2589 9.80005 14C9.80005 13.746 9.89034 13.5279 10.0709 13.3459L14.7114 8.66611C14.8873 8.48876 15.1011 8.4 15.3529 8.4C15.6001 8.4 15.8163 8.48876 16.0017 8.66611Z" fill="white"></path>
  </symbol>
   <symbol xmlns="http://www.w3.org/2000/svg" viewBox="0 0 28 28" id="Right">
    <path opacity="0.24" d="M14 28C21.732 28 28 21.732 28 14C28 6.26801 21.732 0 14 0C6.26801 0 0 6.26801 0 14C0 21.732 6.26801 28 14 28Z" fill="black"></path>
    <path fill-rule="evenodd" clip-rule="evenodd" d="M11.9983 8.66611L11.4637 9.20513C11.2879 9.39201 11.2 9.61012 11.2 9.8592C11.2 10.1133 11.2879 10.329 11.4637 10.5063L14.9281 14L11.4637 17.4937C11.288 17.671 11.2 17.8867 11.2 18.1407C11.2 18.3899 11.288 18.608 11.4637 18.7949L11.9984 19.3268C12.1789 19.5089 12.3952 19.6 12.6471 19.6C12.9037 19.6 13.1175 19.5089 13.2886 19.3268L17.9291 14.647C18.1097 14.4744 18.2 14.2589 18.2 14C18.2 13.746 18.1097 13.5279 17.9291 13.3459L13.2886 8.66611C13.1127 8.48876 12.8989 8.4 12.6471 8.4C12.3999 8.4 12.1837 8.48876 11.9983 8.66611Z" fill="white"></path>
  </symbol>
</svg>